<?xml version="1.0" encoding="UTF-8"?>
<svg id="Camada_2" data-name="Camada 2" xmlns="http://www.w3.org/2000/svg" viewBox="0 0 1124.08 1443.68">
  <g id="Camada_1-2" data-name="Camada 1">
    <g>
      <path d="M1046.04,535.64c1.38,1.38-1.84,29.03-2.04,33.46-12.19,272.05-28.13,544.13-44,816-.42,7.18.58,14.88.03,22.03-1.69,21.88-14.35,35.02-36.44,36.56H157.5c-13.24-1.15-26.53-10.38-30.94-23.07-4.12-11.84-1.8-23.43-2.48-35.52-15.44-271.91-31.81-543.93-44-816-.5-11.11-2.85-22.27-2.04-33.46h968ZM391.8,680.9c-12.46,1.69-26.31,14.5-27.76,27.24l.47,493.53c12.84,34.63,60.42,30.44,65.52-6.54l.05-483.03c-1.48-19.55-18.73-33.86-38.28-31.21ZM721.78,680.88c-14.73,2.32-26.29,15.71-27.73,30.27l-.05,483.03c4.19,38.93,55.67,42.4,66.06,4.99l.02-490.06c-2.45-17.88-20.45-31.04-38.3-28.22Z"/>
      <path d="M740.69,81.99c28.18,32.45,47.19,76.02,53.45,118.55l300.44.06c14.5,1.33,27.52,14.11,29.5,28.5l-.04,213.04c-3.32,14.37-15.15,25.99-30.46,26.54H29.5c-15.09-1.1-26.82-13.06-29.5-27.5l.04-213.04c2.88-14.27,14.89-25.88,29.46-27.54l300.44-.06c11.59-82.84,69.23-154.43,146.85-184.64,93.43-36.36,198.97-8.66,263.9,66.1ZM724.04,200.64c-20.45-102.29-131.32-160.02-227.97-118.47-48.47,20.84-86.35,66.5-96.03,118.47h324Z"/>
    </g>
  </g>
</svg>