<?xml version="1.0" encoding="UTF-8"?>
<svg id="Camada_2" data-name="Camada 2" xmlns="http://www.w3.org/2000/svg" viewBox="0 0 896.9 263.87">
  <defs>
    <style>
      .cls-1 {
        fill: #006634;
      }

      .cls-2 {
        fill: #042a2b;
      }
    </style>
  </defs>
  <g id="Camada_1-2" data-name="Camada 1">
    <g>
      <polygon class="cls-1" points="750.75 0 750.76 154.21 757.1 148.31 822.92 66.22 887.83 66.22 815.32 149.96 896.9 263.07 835.17 263.07 782.07 186.89 750.75 222.7 750.75 263.07 697.19 263.07 697.19 0 750.75 0"/>
      <path class="cls-2" d="M0,11.79C3.55,3.14,8.6-.89,18.4,1.12c4.52.93,5.14,4.37,6.25,5.06,2.64,1.64,2.73-1.66,3.9-2.56,7.84-6.06,19.33-2.94,22.35,6.76,5.04,16.21-13.05,32.09-25.02,40.07C14.52,42.73,4.32,33.39,0,19.96v-8.16Z"/>
      <path class="cls-1" d="M288.68,225.42c-3.76,1.94-6.64,6.13-9.67,8.48-59.45,46.14-154.76,38.51-194.96-28.97-37.06-62.19-19.84-155.16,46.01-189.77,47.33-24.88,111.7-16.47,149.23,22.34.78.81,4.94,5.81,4.82,6.39l-37.17,37.74c-.05-1.05-.66-1.98-1.34-2.75-37.48-42.49-105.08-28.46-118.96,28.15-10.34,42.16,4.62,93.15,52.01,101.33,19.08,3.29,44.46,1.52,59.19-11.98v-69.4h50.84v98.42Z"/>
      <path class="cls-1" d="M356.76,182.33c.87,2.82,1.46,6.08,2.55,8.79,9.45,23.51,34.19,30.05,57.59,26.35,12.73-2.01,18.89-8.47,28.37-16.13l30.31,28.48c-1.09,1.62-2.19,3.23-3.51,4.68-38.99,43-116.97,38.05-149.65-10.15-21.96-32.38-23.22-78.69-4.14-112.69,32.47-57.86,125.39-61.91,156.99-1.04,11.51,22.18,12.29,47.37,8.59,71.7h-127.09ZM357.67,147.86h78.07c-.08-11.2-7.31-25.78-17.55-31-1.38-.7-8.93-4.18-9.45-4.33-9.38-2.6-19.84-.31-28.09,3.42-13.22,5.98-21.37,17.53-22.99,31.91Z"/>
      <path class="cls-1" d="M552.85,182.33c.87,2.82,1.46,6.08,2.55,8.79,9.45,23.51,34.19,30.05,57.59,26.35,12.73-2.01,18.89-8.47,28.37-16.13l30.31,28.48c-1.09,1.62-2.19,3.23-3.51,4.68-38.99,43-116.97,38.05-149.65-10.15-21.96-32.38-23.22-78.69-4.14-112.69,32.47-57.86,125.39-61.91,156.99-1.04,11.51,22.18,12.29,47.37,8.59,71.7h-127.09ZM553.76,147.86h78.07c-.08-11.2-7.31-25.78-17.55-31-1.38-.7-8.93-4.18-9.45-4.33-9.38-2.6-19.84-.31-28.09,3.42-13.22,5.98-21.37,17.53-22.99,31.91Z"/>
      <rect class="cls-2" x="1.82" y="66.22" width="47.21" height="196.85"/>
    </g>
  </g>
</svg>